<?xml version="1.0" encoding="UTF-8" standalone="no"?>
<!DOCTYPE svg PUBLIC "-//W3C//DTD SVG 1.1//EN" "http://www.w3.org/Graphics/SVG/1.1/DTD/svg11.dtd">
<svg width="100%" height="100%" viewBox="0 0 512 347" version="1.1" xmlns="http://www.w3.org/2000/svg" xmlns:xlink="http://www.w3.org/1999/xlink" xml:space="preserve" xmlns:serif="http://www.serif.com/" style="fill-rule:evenodd;clip-rule:evenodd;stroke-linejoin:round;stroke-miterlimit:2;">
    <g id="Artboard1" transform="matrix(0.898573,0,0,1.05249,18.614,-96.1782)">
        <rect x="-20.715" y="91.382" width="569.707" height="329.236" style="fill:none;"/>
        <clipPath id="_clip1">
            <rect x="-20.715" y="91.382" width="569.707" height="329.236"/>
        </clipPath>
        <g clip-path="url(#_clip1)">
            <g transform="matrix(1.17859,0,0,1.21106,-38.3433,-43.6592)">
                <path d="M14.273,112.52L14.273,383.665L497.727,383.665L497.727,112.52L14.273,112.52Z" style="fill:rgb(230,230,230);fill-rule:nonzero;"/>
            </g>
            <g transform="matrix(1.11288,0,0,0.950132,-21.5213,21.3383)">
                <path d="M512,91.382L512,404.803L482.093,374.896L482.093,121.289L512,91.382Z" style="fill:rgb(247,178,57);fill-rule:nonzero;"/>
            </g>
            <g transform="matrix(1.11288,0,0,0.950132,-21.5213,21.3383)">
                <path d="M512,91.382L482.093,121.289L29.907,121.289L0,91.382L512,91.382Z" style="fill:rgb(224,155,45);fill-rule:nonzero;"/>
                <path d="M482.093,374.896L29.907,374.896L0,404.803L512,404.803L482.093,374.896Z" style="fill:rgb(224,155,45);fill-rule:nonzero;"/>
            </g>
            <g transform="matrix(1.11288,0,0,0.950132,-21.5213,21.3383)">
                <path d="M404.504,404.803L399.922,401.477L395.352,404.803L395.34,404.803L373.604,420.618L373.604,315.242C374.573,315.505 375.494,315.84 376.331,316.271C381.487,318.903 390.072,332.008 390.985,326.415C400.249,269.642 402.409,322.18 408.056,321.283C412.781,320.541 418.571,322.659 423.368,321.75L426.251,321.75L426.251,420.606L404.504,404.803Z" style="fill:rgb(249,84,40);fill-rule:nonzero;"/>
            </g>
            <g transform="matrix(1.11288,0,0,0.950132,-21.5213,21.3383)">
                <path d="M29.907,121.289L29.907,374.896L0,404.803L0,91.382L29.907,121.289Z" style="fill:rgb(247,178,57);fill-rule:nonzero;"/>
            </g>
            <g transform="matrix(1.11288,0,0,0.950132,-21.5213,21.3383)">
                <rect x="166.878" y="162.584" width="178.243" height="17.944" style="fill:rgb(102,102,102);"/>
                <rect x="192" y="231.967" width="128" height="17.944" style="fill:rgb(102,102,102);"/>
                <rect x="135.776" y="196.079" width="240.449" height="17.944" style="fill:rgb(102,102,102);"/>
                <rect x="135.776" y="314.485" width="88.523" height="17.944" style="fill:rgb(102,102,102);"/>
            </g>
            <g transform="matrix(1.11288,0,0,0.950132,-21.5213,21.3383)">
                <path d="M373.604,352.383C368.855,351.007 362.957,350.971 359.512,347.514C355.349,343.351 356.151,335.671 353.614,330.695C350.982,325.539 344.343,321.639 343.458,316.041C342.573,310.383 347.705,304.617 348.602,298.958C349.475,293.371 346.353,286.29 348.985,281.134C351.521,276.158 359.022,274.507 363.185,270.356C367.348,266.193 368.999,258.68 373.975,256.144C379.131,253.524 386.201,256.646 391.799,255.761C397.445,254.876 403.211,249.744 408.87,250.629C414.469,251.514 418.368,258.153 423.524,260.785C428.5,263.321 436.192,262.508 440.343,266.671C444.506,270.834 443.705,278.526 446.241,283.502C448.873,288.658 455.512,292.558 456.397,298.156C457.282,303.802 452.15,309.58 451.253,315.227C450.38,320.826 453.502,327.895 450.87,333.051C448.334,338.027 440.833,339.678 436.67,343.841C432.507,348.004 430.856,355.505 425.892,358.041C425.09,358.448 424.241,358.723 423.368,358.89C418.571,359.799 412.781,357.682 408.056,358.423C402.41,359.32 396.644,364.452 390.985,363.555C385.387,362.682 381.487,356.042 376.331,353.411C375.495,352.981 374.573,352.646 373.604,352.383Z" style="fill:rgb(247,178,57);fill-rule:nonzero;"/>
            </g>
            <g transform="matrix(1.11288,0,0,0.950132,-21.5213,21.3383)">
                <path d="M417.495,289.531C427.197,299.233 427.197,314.964 417.495,324.653C407.793,334.355 392.062,334.355 382.361,324.653C372.659,314.963 372.659,299.232 382.361,289.531C392.063,279.829 407.794,279.829 417.495,289.531Z" style="fill:rgb(249,84,40);fill-rule:nonzero;"/>
            </g>
        </g>
    </g>
</svg>
