<?xml version="1.0" encoding="UTF-8" standalone="no"?><!DOCTYPE svg PUBLIC "-//W3C//DTD SVG 1.1//EN" "http://www.w3.org/Graphics/SVG/1.1/DTD/svg11.dtd"><svg width="100%" height="100%" viewBox="0 0 2084 1396" version="1.1" xmlns="http://www.w3.org/2000/svg" xmlns:xlink="http://www.w3.org/1999/xlink" xml:space="preserve" xmlns:serif="http://www.serif.com/" style="fill-rule:evenodd;clip-rule:evenodd;stroke-linecap:round;stroke-linejoin:round;stroke-miterlimit:10;"><g id="Layer-3" serif:id="Layer 3"><path d="M1354.57,1027.34c-0,27.912 -22.838,50.754 -50.763,50.754l-534.267,-0c-27.912,-0 -50.75,-22.842 -50.75,-50.754l0,-659.025c0,-27.921 22.838,-50.759 50.75,-50.759l534.267,0c27.925,0 50.763,22.842 50.763,50.759l-0,659.025Z" style="fill:#a78d64;fill-rule:nonzero;"/><path d="M1036.67,277.613c-9.708,-0 -17.579,-7.875 -17.579,-17.588c0,-9.704 7.871,-17.575 17.579,-17.575c9.721,0 17.592,7.871 17.592,17.575c-0.013,9.713 -7.883,17.588 -17.592,17.588m118.359,4.625l-75.571,-0c3.454,-6.65 5.437,-14.192 5.437,-22.209c0.009,-26.629 -21.591,-48.221 -48.225,-48.221c-26.641,0 -48.225,21.592 -48.225,48.221c0,8.017 1.984,15.563 5.45,22.209l-75.575,-0c-20.946,-0 -38.075,17.129 -38.075,38.07l0,56.467l312.859,0l-0,-56.467c-0,-20.941 -17.134,-38.07 -38.075,-38.07" style="fill:#3f4b58;fill-rule:nonzero;"/><path d="M1343.58,1027.34c0,27.912 -22.85,50.754 -50.766,50.754l-534.263,-0c-27.921,-0 -50.762,-22.842 -50.762,-50.754l-0,-659.025c-0,-27.921 22.841,-50.759 50.762,-50.759l534.263,0c27.916,0 50.766,22.842 50.766,50.759l0,659.025Z" style="fill:#caa978;fill-rule:nonzero;"/><rect x="760.875" y="361.838" width="529.6" height="643.729" style="fill:#e8e8e8;"/><path d="M1025.68,277.613c-9.721,-0 -17.579,-7.875 -17.579,-17.588c-0,-9.704 7.858,-17.575 17.579,-17.575c9.708,0 17.587,7.871 17.587,17.575c-0.008,9.713 -7.879,17.588 -17.587,17.588m118.35,4.625l-75.575,-0c3.454,-6.65 5.437,-14.192 5.437,-22.209c0,-26.629 -21.583,-48.221 -48.212,-48.221c-26.634,0 -48.225,21.592 -48.225,48.221c-0,8.017 1.983,15.563 5.437,22.209l-75.575,-0c-20.937,-0 -38.071,17.129 -38.071,38.07l0,56.467l312.859,0l-0,-56.467c-0,-20.941 -17.129,-38.07 -38.075,-38.07" style="fill:#5d6771;fill-rule:nonzero;"/><path d="M1025.68,277.613c-9.721,-0 -17.579,-7.875 -17.579,-17.588c-0,-9.704 7.858,-17.575 17.579,-17.575c9.708,0 17.587,7.871 17.587,17.575c-0.008,9.713 -7.879,17.588 -17.587,17.588m-0,-54.384c-20.325,0 -36.8,16.479 -36.8,36.8c-0,20.329 16.475,36.809 36.8,36.809c20.329,-0 36.8,-16.48 36.8,-36.809c-0,-20.321 -16.479,-36.8 -36.8,-36.8" style="fill:#a4a9ad;fill-rule:nonzero;"/><path d="M890.32,343.782l270.717,0" style="fill:none;fill-rule:nonzero;stroke:#a4a9ad;stroke-width:5.78px;"/><path d="M944.193,322.632l162.975,-0" style="fill:none;fill-rule:nonzero;stroke:#a4a9ad;stroke-width:5.78px;"/><rect x="811.646" y="446.771" width="421.304" height="25.604" style="fill:#a4a9ad;"/><rect x="811.646" y="507.688" width="360.392" height="25.592" style="fill:#a4a9ad;"/><rect x="811.646" y="568.6" width="421.304" height="25.592" style="fill:#a4a9ad;"/><rect x="811.646" y="629.504" width="360.392" height="25.604" style="fill:#a4a9ad;"/><rect x="811.646" y="690.412" width="421.304" height="25.608" style="fill:#a4a9ad;"/><rect x="811.646" y="751.329" width="360.392" height="25.592" style="fill:#a4a9ad;"/><rect x="811.646" y="812.233" width="421.304" height="25.604" style="fill:#a4a9ad;"/></g><g id="Layer-1" serif:id="Layer 1"><path d="M1390.3,827.03c0,30.946 -22.208,56.009 -49.629,56.009l-651.016,-0c-27.405,-0 -49.613,-25.063 -49.613,-56.009l0,-85.295c0,-30.942 22.208,-56.025 49.613,-56.025l651.037,-0c27.4,-0 49.621,25.083 49.621,56.025l-0,85.295l-0.013,0Z" style="fill:#3fae49;fill-rule:nonzero;"/><path d="M1029.21,740.914c0,-0 -124.391,49.029 -258.837,-37.359l53.721,333.771c-0,0 77.158,-112.225 205.116,-112.225c127.955,0 205.121,112.225 205.121,112.225l53.717,-333.771c-134.446,86.405 -258.838,37.359 -258.838,37.359" style="fill:#494f4f;fill-rule:nonzero;"/><path d="M1454.93,625.56c152.991,-0 277.012,124.025 277.012,277.016c0,152.992 -124.021,277.021 -277.012,277.021c-152.996,0 -277.017,-124.029 -277.017,-277.021c0,-152.991 124.021,-277.016 277.017,-277.016" style="fill:#f4752d;fill-rule:nonzero;"/><path d="M1454.93,703.573c109.904,-0 199,89.1 199,199.004c-0,109.912 -89.096,199.004 -199,199.004c-109.913,-0 -199.009,-89.092 -199.009,-199.004c0,-109.904 89.096,-199.004 199.009,-199.004" style="fill:#cfcec7;fill-rule:nonzero;"/><g opacity="0.4"><path d="M1454.93,703.556c109.9,0 199,89.121 199,199.021l-398.009,0c0,-109.9 89.1,-199.021 199.009,-199.021" style="fill:#fff;fill-rule:nonzero;"/></g><path d="M1029.21,580.829c67.784,-0 122.73,54.95 122.73,122.729c-0,67.779 -54.946,122.729 -122.73,122.729c-67.783,0 -122.729,-54.95 -122.729,-122.729c0,-67.779 54.946,-122.729 122.729,-122.729" style="fill:#494f4f;fill-rule:nonzero;"/><path d="M1029.21,653.929c27.405,-0 49.63,22.221 49.63,49.629c-0,27.408 -22.225,49.629 -49.63,49.629c-27.408,0 -49.629,-22.221 -49.629,-49.629c0,-27.408 22.221,-49.629 49.629,-49.629" style="fill:#f4752d;fill-rule:nonzero;"/><path d="M622.852,625.56c152.991,-0 277.016,124.025 277.016,277.016c0,152.992 -124.025,277.021 -277.016,277.021c-152.996,0 -277.017,-124.029 -277.017,-277.021c0,-152.991 124.021,-277.016 277.017,-277.016" style="fill:#f4752d;fill-rule:nonzero;"/><path d="M622.852,703.573c109.904,-0 199.004,89.1 199.004,199.004c-0,109.912 -89.1,199.004 -199.004,199.004c-109.909,-0 -199.009,-89.092 -199.009,-199.004c0,-109.904 89.1,-199.004 199.009,-199.004" style="fill:#cfcec7;fill-rule:nonzero;"/><g opacity="0.4"><path d="M622.852,703.556c-109.904,0 -199.009,89.121 -199.009,199.021l398.013,0c-0,-109.9 -89.104,-199.021 -199.004,-199.021" style="fill:#fff;fill-rule:nonzero;"/></g></g><g id="Layer-2" serif:id="Layer 2"><path d="M723.462,783.362l-79.929,-0c-2.004,-0 -3.633,-1.634 -3.633,-3.634c-0,-2.008 1.629,-3.633 3.633,-3.633l79.929,0c2.004,0 3.633,1.625 3.633,3.633c0,2.005 -1.629,3.634 -3.633,3.634" style="fill:#c7cfe3;fill-rule:nonzero;"/><path d="M599.935,783.362l-79.929,-0c-2.008,-0 -3.633,-1.634 -3.633,-3.634c-0,-2.008 1.625,-3.633 3.633,-3.633l79.929,0c2.004,0 3.633,1.625 3.633,3.633c0,2.005 -1.629,3.634 -3.633,3.634" style="fill:#c7cfe3;fill-rule:nonzero;"/><path d="M559.969,768.828c-2.004,-0 -3.633,1.629 -3.633,3.633l-0,18.166l7.271,0l-0,-18.166c-0,-2.004 -1.634,-3.634 -3.638,-3.634" style="fill:#959cb3;fill-rule:nonzero;"/><path d="M683.498,768.828c-2.008,-0 -3.633,1.629 -3.633,3.633l0,18.166l7.267,0l-0,-18.166c-0,-2.004 -1.625,-3.634 -3.634,-3.634" style="fill:#959cb3;fill-rule:nonzero;"/><path d="M609.019,841.492c-3.008,-0 -5.45,-2.442 -5.45,-5.45l0,-10.9c0,-3.009 2.442,-5.45 5.45,-5.45c3.008,-0 5.45,2.441 5.45,5.45l0,10.9c0,3.008 -2.442,5.45 -5.45,5.45" style="fill:#464756;fill-rule:nonzero;"/><path d="M634.45,841.492c-3.012,-0 -5.45,-2.442 -5.45,-5.45l0,-10.9c0,-3.009 2.438,-5.45 5.45,-5.45c3.013,-0 5.45,2.441 5.45,5.45l0,10.9c0,3.008 -2.437,5.45 -5.45,5.45" style="fill:#464756;fill-rule:nonzero;"/><rect x="614.471" y="826.958" width="14.529" height="36.333" style="fill:#5c5e6f;"/><path d="M578.135,892.358c-2.004,0 -3.633,-1.633 -3.633,-3.637c-0,-32.363 5.933,-47.454 9.471,-53.567c0.933,-1.617 1.429,-3.475 1.429,-5.383l-0,-10.079c-0,-2.009 1.629,-3.634 3.633,-3.634c2.008,0 3.633,1.625 3.633,3.634l0,10.079c0,3.183 -0.829,6.3 -2.404,9.025c-2.554,4.412 -8.491,18.112 -8.491,49.925c-0,2.004 -1.63,3.637 -3.638,3.637" style="fill:#c7cfe3;fill-rule:nonzero;"/><path d="M665.334,892.358c-2.008,0 -3.637,-1.633 -3.637,-3.637c-0,-31.813 -5.938,-45.513 -8.492,-49.929c-1.571,-2.721 -2.404,-5.838 -2.404,-9.021l-0,-10.079c-0,-2.009 1.625,-3.634 3.629,-3.634c2.008,0 3.637,1.625 3.637,3.634l0,10.079c0,1.908 0.496,3.766 1.43,5.383c3.537,6.113 9.466,21.204 9.466,53.567c0,2.004 -1.625,3.637 -3.629,3.637" style="fill:#c7cfe3;fill-rule:nonzero;"/><path d="M599.934,816.056l-14.533,0l-0,3.634c-0,2.008 1.629,3.637 3.633,3.637l10.9,0l0,-7.271Z" style="fill:#afb9d2;fill-rule:nonzero;"/><path d="M658.069,816.056l-14.534,0l0,7.271l10.896,0c2.009,0 3.638,-1.629 3.638,-3.637l-0,-3.634Z" style="fill:#afb9d2;fill-rule:nonzero;"/><path d="M570.872,794.259l-21.8,-0l2.625,-5.259c0.617,-1.233 1.875,-2.008 3.254,-2.008l10.038,0c1.375,0 2.637,0.775 3.254,2.008l2.629,5.259Z" style="fill:#83899e;fill-rule:nonzero;"/><rect x="549.071" y="794.258" width="21.8" height="7.271" style="fill:#5c5e6f;"/><path d="M694.399,794.259l-21.8,-0l2.625,-5.259c0.617,-1.233 1.879,-2.008 3.25,-2.008l10.046,0c1.371,0 2.633,0.775 3.25,2.008l2.629,5.259Z" style="fill:#83899e;fill-rule:nonzero;"/><rect x="672.6" y="794.258" width="21.8" height="7.271" style="fill:#5c5e6f;"/><path d="M698.03,808.793l-152.591,0c-2.009,0 -3.634,-1.629 -3.634,-3.637c0,-2.004 1.625,-3.625 3.634,-3.625l152.591,-0c2.009,-0 3.638,1.621 3.638,3.625c-0,2.012 -1.629,3.637 -3.638,3.637" style="fill:#e3eaf6;fill-rule:nonzero;"/><path d="M654.193,793.872l-14.383,-1.442c-12.021,-1.2 -24.134,-1.2 -36.15,0l-14.388,1.442c-2.504,0.254 -4.842,1.358 -6.621,3.138l-4.516,4.52l87.2,0l-4.517,-4.52c-1.779,-1.78 -4.121,-2.884 -6.625,-3.138" style="fill:#d7deee;fill-rule:nonzero;"/><path d="M567.236,808.793l4.075,4.071c2.046,2.05 4.817,3.192 7.709,3.192l8.2,-0c3.429,-0 6.662,1.616 8.72,4.362l3.267,4.359c2.75,3.662 7.054,5.812 11.629,5.812l21.796,0c4.575,0 8.883,-2.15 11.629,-5.812l3.271,-4.359c2.058,-2.745 5.288,-4.362 8.721,-4.362l8.2,-0c2.887,-0 5.662,-1.142 7.704,-3.192l4.075,-4.071l-108.996,0Z" style="fill:#d7deee;fill-rule:nonzero;"/><rect x="597.213" y="868.738" width="12.263" height="10.9" style="fill:#5c5e6f;"/><path d="M647.166,888.721l-36.329,-0c-2.009,-0 -3.634,-1.625 -3.634,-3.629l0,-21.804c0,-2.005 1.625,-3.638 3.634,-3.638l36.329,0c2.008,0 3.637,1.633 3.637,3.638l0,21.804c0,2.004 -1.629,3.629 -3.637,3.629" style="fill:#959cb3;fill-rule:nonzero;"/><path d="M596.301,881.458l-3.633,-0c-2.008,-0 -3.633,-1.63 -3.633,-3.638l-0,-7.258c-0,-2.013 1.625,-3.638 3.633,-3.638l3.633,0c2.004,0 3.634,1.625 3.634,3.638l-0,7.258c-0,2.008 -1.63,3.638 -3.634,3.638" style="fill:#c6d0e5;fill-rule:nonzero;"/><path d="M636.267,863.29c6.021,-0 10.9,4.883 10.9,10.895c0,6.03 -4.879,10.905 -10.9,10.905c-6.021,-0 -10.9,-4.875 -10.9,-10.905c0,-6.012 4.879,-10.895 10.9,-10.895" style="fill:#464756;fill-rule:nonzero;"/><path d="M636.267,870.561c2.004,-0 3.633,1.625 3.633,3.625c0,2.012 -1.629,3.633 -3.633,3.633c-2.004,0 -3.633,-1.621 -3.633,-3.633c-0,-2 1.629,-3.625 3.633,-3.625" style="fill:#e3eaf6;fill-rule:nonzero;"/><path d="M616.286,876.005c2.004,0 3.634,1.629 3.634,3.633c-0,2.009 -1.63,3.63 -3.634,3.63c-2.008,-0 -3.637,-1.621 -3.637,-3.63c-0,-2.004 1.629,-3.633 3.637,-3.633" style="fill:#e3eaf6;fill-rule:nonzero;"/><path d="M618.101,872.371l-3.633,0c-1.005,0 -1.817,-0.808 -1.817,-1.812l-0,-3.638c-0,-1 0.812,-1.812 1.817,-1.812l3.633,-0c1.004,-0 1.817,0.812 1.817,1.812l-0,3.638c-0,1.004 -0.813,1.812 -1.817,1.812" style="fill:#789179;fill-rule:nonzero;"/><path d="M578.135,808.793l-3.633,0c-2.009,0 -3.629,-1.629 -3.629,-3.637l-0,-3.625l10.895,-0l0,3.625c0.005,2.012 -1.625,3.637 -3.633,3.637" style="fill:#f16466;fill-rule:nonzero;"/><path d="M672.599,808.793l-3.637,0c-2.005,0 -3.63,-1.629 -3.63,-3.637l0,-3.625l10.9,-0l0,3.625c0,2.012 -1.629,3.637 -3.633,3.637" style="fill:#f16466;fill-rule:nonzero;"/><path d="M1556.84,770.776l-79.929,0c-2,0 -3.629,-1.629 -3.629,-3.633c-0,-2.008 1.629,-3.633 3.629,-3.633l79.933,-0c2.008,-0 3.633,1.625 3.633,3.633c0,2.004 -1.625,3.633 -3.637,3.633" style="fill:#c7cfe3;fill-rule:nonzero;"/><path d="M1433.31,770.776l-79.933,0c-2,0 -3.634,-1.629 -3.634,-3.633c0,-2.008 1.634,-3.633 3.634,-3.633l79.933,-0c2.008,-0 3.633,1.625 3.633,3.633c0,2.004 -1.625,3.633 -3.633,3.633" style="fill:#c7cfe3;fill-rule:nonzero;"/><path d="M1393.35,756.242c-2.008,-0 -3.637,1.629 -3.637,3.633l-0,18.167l7.266,-0l0,-18.167c0,-2.004 -1.629,-3.633 -3.629,-3.633" style="fill:#959cb3;fill-rule:nonzero;"/><path d="M1516.88,756.242c-2.012,-0 -3.637,1.629 -3.637,3.633l-0,18.167l7.267,-0l-0,-18.167c-0,-2.004 -1.63,-3.633 -3.63,-3.633" style="fill:#959cb3;fill-rule:nonzero;"/><path d="M1442.39,828.906c-3.008,0 -5.45,-2.437 -5.45,-5.45l0,-10.9c0,-3.008 2.442,-5.45 5.45,-5.45c3.013,0 5.454,2.442 5.454,5.45l0,10.9c0,3.013 -2.441,5.45 -5.454,5.45" style="fill:#464756;fill-rule:nonzero;"/><path d="M1467.83,828.906c-3.016,0 -5.45,-2.437 -5.45,-5.45l0,-10.9c0,-3.008 2.434,-5.45 5.45,-5.45c3.009,0 5.45,2.442 5.45,5.45l0,10.9c0,3.013 -2.441,5.45 -5.45,5.45" style="fill:#464756;fill-rule:nonzero;"/><rect x="1447.85" y="814.371" width="14.533" height="36.333" style="fill:#5c5e6f;"/><path d="M1411.52,879.773c-2.004,-0 -3.637,-1.629 -3.637,-3.638c-0,-32.362 5.942,-47.454 9.471,-53.566c0.933,-1.617 1.429,-3.479 1.429,-5.384l-0,-10.079c-0,-2.004 1.629,-3.629 3.633,-3.629c2.013,0 3.634,1.625 3.634,3.629l-0,10.079c-0,3.184 -0.83,6.305 -2.405,9.025c-2.55,4.413 -8.491,18.117 -8.491,49.925c-0,2.009 -1.634,3.638 -3.634,3.638" style="fill:#c7cfe3;fill-rule:nonzero;"/><path d="M1498.71,879.773c-2.004,-0 -3.633,-1.629 -3.633,-3.638c-0,-31.808 -5.942,-45.512 -8.492,-49.929c-1.571,-2.716 -2.404,-5.837 -2.404,-9.021l-0,-10.079c-0,-2.004 1.621,-3.629 3.629,-3.629c2.004,0 3.638,1.625 3.638,3.629l-0,10.079c-0,1.905 0.491,3.767 1.425,5.384c3.537,6.112 9.466,21.204 9.466,53.566c0,2.009 -1.625,3.638 -3.629,3.638" style="fill:#c7cfe3;fill-rule:nonzero;"/><path d="M1433.31,803.479l-14.533,0l-0,3.625c-0,2.017 1.629,3.638 3.633,3.638l10.9,-0l0,-7.263Z" style="fill:#afb9d2;fill-rule:nonzero;"/><path d="M1491.45,803.479l-14.538,0l0,7.263l10.9,-0c2.004,-0 3.638,-1.625 3.638,-3.638l-0,-3.625Z" style="fill:#afb9d2;fill-rule:nonzero;"/><path d="M1404.25,781.677l-21.8,0l2.621,-5.262c0.621,-1.23 1.879,-2.005 3.258,-2.005l10.038,0c1.375,0 2.633,0.775 3.246,2.005l2.637,5.262Z" style="fill:#83899e;fill-rule:nonzero;"/><rect x="1382.45" y="781.679" width="21.8" height="7.263" style="fill:#5c5e6f;"/><path d="M1527.78,781.677l-21.8,0l2.621,-5.262c0.621,-1.23 1.879,-2.005 3.25,-2.005l10.046,0c1.375,0 2.633,0.775 3.246,2.005l2.637,5.262Z" style="fill:#83899e;fill-rule:nonzero;"/><rect x="1505.98" y="781.679" width="21.8" height="7.263" style="fill:#5c5e6f;"/><path d="M1531.4,796.208l-152.588,-0c-2.012,-0 -3.633,-1.63 -3.633,-3.634c-0,-2.008 1.621,-3.633 3.633,-3.633l152.588,-0c2.012,-0 3.637,1.625 3.637,3.633c0,2.004 -1.625,3.634 -3.637,3.634" style="fill:#e3eaf6;fill-rule:nonzero;"/><path d="M1487.57,781.287l-14.387,-1.442c-12.021,-1.204 -24.129,-1.204 -36.15,-0l-14.383,1.442c-2.509,0.254 -4.846,1.362 -6.625,3.141l-4.513,4.513l87.196,-0l-4.517,-4.513c-1.783,-1.779 -4.116,-2.887 -6.621,-3.141" style="fill:#d7deee;fill-rule:nonzero;"/><path d="M1400.62,796.208l4.075,4.079c2.045,2.041 4.816,3.191 7.708,3.191l8.196,0c3.433,0 6.666,1.617 8.725,4.359l3.271,4.358c2.741,3.658 7.045,5.808 11.62,5.808l21.796,0c4.579,0 8.892,-2.15 11.634,-5.808l3.27,-4.358c2.055,-2.742 5.284,-4.359 8.717,-4.359l8.2,0c2.892,0 5.667,-1.15 7.708,-3.191l4.071,-4.079l-108.991,-0Z" style="fill:#d7deee;fill-rule:nonzero;"/><rect x="1430.59" y="856.154" width="12.258" height="10.9" style="fill:#5c5e6f;"/><path d="M1480.55,876.135l-36.337,0c-2,0 -3.625,-1.625 -3.625,-3.625l-0,-21.808c-0,-2.004 1.625,-3.633 3.625,-3.633l36.337,-0c2,-0 3.634,1.629 3.634,3.633l-0,21.808c-0,2 -1.634,3.625 -3.634,3.625" style="fill:#959cb3;fill-rule:nonzero;"/><path d="M1429.68,868.872l-3.633,0c-2.008,0 -3.633,-1.625 -3.633,-3.637l-0,-7.259c-0,-2.012 1.625,-3.637 3.633,-3.637l3.633,-0c2.004,-0 3.634,1.625 3.634,3.637l-0,7.259c-0,2.012 -1.63,3.637 -3.634,3.637" style="fill:#c6d0e5;fill-rule:nonzero;"/><path d="M1469.64,850.704c6.017,-0 10.9,4.883 10.9,10.896c0,6.029 -4.883,10.908 -10.9,10.908c-6.017,-0 -10.9,-4.879 -10.9,-10.908c0,-6.013 4.883,-10.896 10.9,-10.896" style="fill:#464756;fill-rule:nonzero;"/><path d="M1469.64,857.975c2,0 3.633,1.625 3.633,3.625c0,2.013 -1.633,3.634 -3.633,3.634c-2,-0 -3.637,-1.621 -3.637,-3.634c-0,-2 1.637,-3.625 3.637,-3.625" style="fill:#e3eaf6;fill-rule:nonzero;"/><path d="M1449.66,863.42c2.004,-0 3.633,1.633 3.633,3.633c0,2.008 -1.629,3.633 -3.633,3.633c-2.004,0 -3.633,-1.625 -3.633,-3.633c-0,-2 1.629,-3.633 3.633,-3.633" style="fill:#e3eaf6;fill-rule:nonzero;"/><path d="M1451.48,859.79l-3.633,0c-1.004,0 -1.821,-0.813 -1.821,-1.817l0,-3.637c0,-1 0.817,-1.813 1.821,-1.813l3.633,0c1.004,0 1.817,0.813 1.817,1.813l-0,3.637c-0,1.005 -0.813,1.817 -1.817,1.817" style="fill:#789179;fill-rule:nonzero;"/><path d="M1411.52,796.208l-3.637,-0c-2.004,-0 -3.625,-1.63 -3.625,-3.634l-0,-3.633l10.892,-0l-0,3.633c0.004,2.004 -1.63,3.634 -3.63,3.634" style="fill:#f16466;fill-rule:nonzero;"/><path d="M1505.98,796.208l-3.638,-0c-2.004,-0 -3.629,-1.63 -3.629,-3.634l-0,-3.633l10.896,-0l-0,3.633c-0,2.004 -1.63,3.634 -3.63,3.634" style="fill:#f16466;fill-rule:nonzero;"/></g></svg>