<?xml version="1.0" encoding="UTF-8" standalone="no"?><!DOCTYPE svg PUBLIC "-//W3C//DTD SVG 1.1//EN" "http://www.w3.org/Graphics/SVG/1.1/DTD/svg11.dtd"><svg width="100%" height="100%" viewBox="0 0 313 212" version="1.1" xmlns="http://www.w3.org/2000/svg" xmlns:xlink="http://www.w3.org/1999/xlink" xml:space="preserve" xmlns:serif="http://www.serif.com/" style="fill-rule:evenodd;clip-rule:evenodd;stroke-linejoin:round;stroke-miterlimit:2;"><rect id="Artboard1" x="-0" y="0" width="312.424" height="211.55" style="fill:none;"/><g><path d="M54.248,95.325l0,109.598l203.928,0l-0,-109.598l-203.928,0Z" style="fill:#c4c2a5;fill-rule:nonzero;"/><path d="M162.755,8.788c-3.688,-3.343 -9.401,-3.343 -13.09,-0l-95.417,86.534l0,0.003l203.928,0l-0,-0.003l-95.421,-86.534Z" style="fill:#e5e5da;fill-rule:nonzero;"/><rect x="79.413" y="38.325" width="153.599" height="146.542" style="fill:#ebebeb;"/><g id="Layer1" opacity="0.6"><g id="Layer3"></g><g><path d="M206.736,138.204c-1.171,1.699 -2.73,2.676 -3.12,3.902c-0.629,1.979 1.636,1.981 2.969,1.608c1.248,-0.349 1.934,-1.166 2.656,-1.368c1.861,-0.523 1.908,-1.595 1.155,-4.142c-0.753,-2.546 -2.717,-1.589 -3.66,0Z" style="fill:#425156;"/><path d="M217.366,138.204c1.171,1.699 2.731,2.676 3.12,3.902c0.641,2.017 -1.747,1.955 -3.043,1.582c-1.228,-0.354 -1.866,-1.141 -2.581,-1.342c-1.861,-0.523 -1.909,-1.595 -1.156,-4.141c0.753,-2.547 2.718,-1.59 3.66,-0.001Z" style="fill:#425156;"/><path d="M205.508,116.264l13.17,-0l-0,23.36l-5.471,-0l0,-16.964c0,-1.456 -2.229,-1.464 -2.229,0l-0,16.964l-5.47,-0l0,-23.36Z" style="fill:#4e6078;"/><path d="M203.77,141.712c-0.069,0.129 -0.125,0.26 -0.168,0.394c-0.631,1.985 1.577,1.983 2.897,1.674c1.381,-0.324 1.969,-1.221 2.727,-1.434c0.998,-0.281 1.475,-0.719 1.586,-1.459c-1.059,0.803 -2.661,1.461 -4.36,2.005c-0.722,-0.78 -1.767,-1.168 -2.682,-1.18Z" style="fill:#707c80;"/><path d="M206.038,139.573c0.091,0.028 0.176,0.062 0.256,0.102l0.023,-0.001c0.51,-0.04 1.036,0.008 1.422,0.215c0.075,0.04 0.103,0.132 0.061,0.205c-0.041,0.074 -0.135,0.1 -0.211,0.06c-0.242,-0.13 -0.559,-0.185 -0.894,-0.19c0.212,0.202 0.363,0.438 0.481,0.636c0.056,0.045 0.073,0.125 0.037,0.189c-0.042,0.073 -0.136,0.1 -0.211,0.06c-0.236,-0.127 -0.526,-0.2 -0.825,-0.232c0.2,0.207 0.343,0.439 0.456,0.628c0.043,0.072 0.018,0.165 -0.056,0.207c-0.074,0.042 -0.169,0.017 -0.212,-0.055c-0.087,-0.145 -0.193,-0.317 -0.328,-0.477l0,-0.617c0.217,0.012 0.433,0.043 0.636,0.097c-0.082,-0.108 -0.178,-0.212 -0.288,-0.303c-0.05,-0.04 -0.103,-0.077 -0.16,-0.111c-0.063,0.006 -0.126,0.014 -0.188,0.023l0,-0.436l0.001,0Zm-1.536,1.302c-0.069,0.049 -0.167,0.034 -0.218,-0.033c-0.05,-0.067 -0.035,-0.162 0.034,-0.211c0.121,-0.087 0.311,-0.164 0.54,-0.222l-0.004,-0c-0.045,0.004 -0.087,-0.012 -0.118,-0.039c-0.016,-0.01 -0.031,-0.023 -0.043,-0.039c-0.05,-0.067 -0.035,-0.162 0.034,-0.211c0.151,-0.108 0.431,-0.222 0.768,-0.309c-0.024,0.001 -0.049,0.002 -0.074,0.005c-0.086,0.007 -0.161,-0.054 -0.169,-0.137c-0.007,-0.083 0.056,-0.157 0.141,-0.164c0.244,-0.022 0.457,0.002 0.645,0.058l-0,0.436c-0.231,0.034 -0.45,0.083 -0.636,0.141c0.133,0.034 0.254,0.084 0.364,0.146c0.09,-0.001 0.181,0.001 0.272,0.006l-0,0.618c-0.065,-0.077 -0.136,-0.15 -0.215,-0.216c-0.045,-0.037 -0.093,-0.073 -0.143,-0.105c-0.511,0.017 -0.975,0.13 -1.178,0.276Z" style="fill:#707c80;fill-rule:nonzero;"/><path d="M220.324,141.712c0.069,0.129 0.125,0.26 0.168,0.394c0.632,1.985 -1.528,1.96 -2.848,1.65c-1.381,-0.324 -2.018,-1.197 -2.776,-1.41c-0.998,-0.281 -1.474,-0.719 -1.586,-1.459c1.059,0.803 2.661,1.461 4.36,2.005c0.723,-0.78 1.767,-1.168 2.682,-1.18Z" style="fill:#707c80;"/><path d="M219.593,140.875c0.069,0.049 0.166,0.034 0.217,-0.033c0.051,-0.067 0.035,-0.162 -0.034,-0.211c-0.121,-0.087 -0.311,-0.164 -0.54,-0.222l0.004,-0c0.045,0.004 0.088,-0.012 0.118,-0.039c0.017,-0.01 0.031,-0.023 0.043,-0.039c0.051,-0.067 0.035,-0.162 -0.034,-0.211c-0.15,-0.108 -0.43,-0.222 -0.768,-0.309c0.025,0.001 0.05,0.002 0.075,0.005c0.085,0.007 0.161,-0.054 0.168,-0.137c0.008,-0.083 -0.055,-0.157 -0.14,-0.164c-0.244,-0.022 -0.457,0.002 -0.645,0.058l-0,0.436c0.231,0.034 0.449,0.083 0.636,0.141c-0.133,0.034 -0.254,0.084 -0.365,0.146c-0.09,-0.001 -0.181,0.001 -0.271,0.006l-0,0.618c0.065,-0.077 0.136,-0.15 0.215,-0.216c0.045,-0.037 0.092,-0.073 0.143,-0.105c0.511,0.017 0.974,0.13 1.178,0.276Zm-1.536,-1.302c-0.092,0.028 -0.177,0.062 -0.257,0.102l-0.023,-0.001c-0.51,-0.04 -1.036,0.008 -1.422,0.215c-0.075,0.04 -0.102,0.132 -0.061,0.205c0.041,0.074 0.136,0.1 0.211,0.06c0.242,-0.13 0.56,-0.185 0.894,-0.19c-0.211,0.202 -0.363,0.438 -0.481,0.636c-0.056,0.045 -0.073,0.125 -0.036,0.189c0.041,0.073 0.135,0.1 0.21,0.06c0.237,-0.127 0.526,-0.2 0.825,-0.232c-0.199,0.207 -0.343,0.439 -0.456,0.628c-0.043,0.072 -0.018,0.165 0.057,0.207c0.074,0.042 0.168,0.017 0.212,-0.055c0.086,-0.145 0.192,-0.317 0.327,-0.477l-0,-0.617c-0.216,0.012 -0.432,0.043 -0.636,0.097c0.083,-0.108 0.178,-0.212 0.288,-0.303c0.05,-0.04 0.103,-0.077 0.16,-0.111c0.063,0.006 0.126,0.014 0.188,0.023l-0,-0.436l-0,0Z" style="fill:#707c80;fill-rule:nonzero;"/><rect x="205.508" y="97.793" width="13.169" height="20.226" style="fill:#2c8145;"/><path d="M212.093,88.258c1.636,0 2.974,1.304 2.974,2.897l-0,6.638c-0,1.593 -1.338,2.897 -2.974,2.897c-1.636,-0 -2.974,-1.304 -2.974,-2.897l-0,-6.638c-0,-1.593 1.338,-2.897 2.974,-2.897Z" style="fill:#fbd9bd;"/><path d="M208.147,100.83l-3.532,9.717c-0.449,1.237 -1.857,1.891 -3.128,1.453c-1.27,-0.438 -1.942,-1.809 -1.492,-3.047l3.531,-9.716c1.026,-2.822 5.593,-1.084 4.621,1.593Z" style="fill:#2c8145;"/><path d="M204.199,117.808c0.328,-0.001 0.596,0.26 0.597,0.579l0.003,1.408c0,0.319 -0.268,0.581 -0.595,0.582l-0,-0c-0.328,0 -0.596,-0.261 -0.597,-0.579l-0.003,-1.409c-0.001,-0.319 0.267,-0.581 0.595,-0.581Z" style="fill:#fbd9bd;"/><path d="M204.796,118.387l-0.014,-0.78l-4.799,0.038l0.014,0.78c0.056,3.445 4.869,3.948 4.799,-0.038Z" style="fill:#fbd9bd;"/><path d="M204.782,117.607l-0.03,-7.459c-0.005,-1.313 -1.144,-2.369 -2.492,-2.347c-1.348,0.023 -2.431,1.116 -2.408,2.428l0.13,7.416l4.8,-0.038Z" style="fill:#2c8145;"/><path d="M209.015,96.799l-0.972,1.093l1.197,4.588l2.019,-2.33l-2.244,-3.351Z" style="fill:#46aa63;"/><path d="M215.371,96.799l0.972,1.093l-1.196,4.588l-2.019,-2.33l2.243,-3.351Z" style="fill:#46aa63;"/><path d="M213.356,100.414c-0.363,0.227 -0.812,0.276 -1.263,0.276l1.035,-0.54l0.228,0.264Zm-1.263,0.276l-0.834,-0.54l-0.283,0.326c0.335,0.168 0.722,0.214 1.117,0.214Z" style="fill:#46aa63;"/><path d="M199.983,117.645l-0.018,-1.014l4.813,-0.041l0.004,1.017l-4.799,0.038Z" style="fill:#46aa63;"/><path d="M216.117,100.83l3.53,9.717c0.45,1.237 1.858,1.892 3.129,1.453c1.27,-0.438 1.942,-1.809 1.492,-3.047l-3.531,-9.716c-1.026,-2.822 -5.593,-1.084 -4.62,1.593Z" style="fill:#2c8145;"/><path d="M220.065,117.808l-0.001,-0c-0.327,-0.001 -0.596,0.26 -0.596,0.579l-0.003,1.408c-0.001,0.319 0.267,0.581 0.594,0.582c0.328,0 0.596,-0.261 0.597,-0.579l0.003,-1.409c0.001,-0.319 -0.266,-0.581 -0.594,-0.581Z" style="fill:#fbd9bd;"/><path d="M219.468,118.387l0.014,-0.78l4.798,0.038l-0.013,0.78c-0.057,3.445 -4.869,3.948 -4.799,-0.038Z" style="fill:#fbd9bd;"/><path d="M219.482,117.607l0.029,-7.459c0.005,-1.313 1.144,-2.369 2.492,-2.347c1.348,0.023 2.432,1.116 2.409,2.428l-0.131,7.416l-4.799,-0.038Z" style="fill:#2c8145;"/><path d="M224.28,117.645l0.018,-1.014l-4.813,-0.041l-0.003,1.017l4.798,0.038Z" style="fill:#46aa63;"/><path d="M215.026,92.577l0,4.368c-1.11,0.788 -2.18,1.23 -2.933,1.23c-0.754,0 -1.824,-0.441 -2.934,-1.23l0,-4.368c-0,-3.523 5.867,-3.523 5.867,0Z" style="fill:#ecc2a0;"/><path d="M212.093,80.864c-9.847,-0 -6.306,11.59 -5.663,12.512c0.71,1.018 4.072,3.714 5.663,3.714c1.591,0 4.953,-2.696 5.662,-3.714c0.643,-0.922 4.185,-12.512 -5.662,-12.512Z" style="fill:#ffddcb;"/><path d="M214.715,93.564c-2.308,0.103 -4.591,-0.725 -5.987,-1.953c0.087,1.861 4.485,3.31 5.987,1.953Z" style="fill:#ecc2a0;"/><path d="M209.335,91.449c-0.481,0.183 -0.871,0.553 -1.042,0.927c-0.113,-0.509 0.654,-1.2 1.042,-0.927Z" style="fill:#ecc2a0;"/><path d="M204.191,89.614c-0.294,-0.87 -0.114,-1.71 0.403,-1.876c0.516,-0.166 1.174,0.406 1.468,1.276c0.295,0.87 0.114,1.711 -0.402,1.876c-0.517,0.166 -1.175,-0.406 -1.469,-1.276Z" style="fill:#ffddcb;"/><path d="M218.233,89.013c0.294,-0.87 0.952,-1.441 1.469,-1.276c0.516,0.166 0.697,1.007 0.402,1.877c-0.294,0.87 -0.952,1.441 -1.468,1.276c-0.516,-0.166 -0.697,-1.007 -0.403,-1.877Z" style="fill:#ffddcb;"/><path d="M209.936,83.92c-2.942,-0.05 -3.771,2.95 -4.34,6.215c-1.542,-9.091 1.747,-10.9 6.321,-10.872c4.745,0.029 8.416,1.053 6.855,10.376c-0.607,-2.655 -2.017,-6.228 -4.378,-5.719c-1.608,0.345 -2.839,0.027 -4.458,-0Z" style="fill:#e19c26;"/><path d="M212.087,79.265c4.345,0.05 7.734,1.023 6.922,8.621c0.229,-0.158 0.47,-0.218 0.688,-0.149c0.517,0.166 0.697,1.006 0.402,1.877c-0.294,0.87 -0.951,1.441 -1.468,1.276c-0.025,-0.008 -0.05,-0.019 -0.074,-0.03c-0.273,1.303 -0.64,2.275 -0.808,2.516c-0.374,0.537 -1.487,1.541 -2.689,2.37l0,1.508l0.305,-0.455l0.884,0.994l2.422,0l-0,0c0.863,0.004 1.69,0.429 2.059,1.444l3.531,9.716c0.12,0.328 0.16,0.666 0.131,0.993c0.01,0.094 0.014,0.188 0.013,0.284l-0.131,7.415l-0.001,0l-0.013,0.78c-0.044,2.692 -2.991,3.587 -4.245,1.95c-0.31,-0.019 -0.557,-0.273 -0.557,-0.58l0.003,-1.408l0.014,-0.78l0.004,-1.016l0.025,-6.422l-0.833,-2.293l-0,31.637l0.024,0.002c0.085,0.008 0.148,0.081 0.14,0.164c-0.006,0.068 -0.057,0.121 -0.123,0.134l0.041,0.043c0.265,0.079 0.481,0.173 0.608,0.264c0.069,0.049 0.084,0.144 0.033,0.211c-0.012,0.016 -0.026,0.029 -0.042,0.039c-0.02,0.017 -0.043,0.03 -0.069,0.035l0.022,0.023c0.195,0.056 0.357,0.125 0.465,0.203c0.069,0.049 0.084,0.143 0.033,0.211c-0.019,0.025 -0.044,0.043 -0.072,0.053c0.235,0.273 0.435,0.541 0.581,0.817l0.006,-0c0.068,0.129 0.125,0.26 0.167,0.394c0.632,1.985 -1.528,1.96 -2.848,1.65c-1.06,-0.248 -1.681,-0.82 -2.255,-1.169c-0.178,-0.106 -0.35,-0.191 -0.526,-0.241c-1.47,-0.413 -1.809,-1.169 -1.515,-2.722l-0.14,-0l-0,-16.964c-0,-0.728 -0.557,-1.094 -1.114,-1.095l0,-42.3Z" style="fill-opacity:0.2;"/><path d="M214.951,91.49c0.064,-0 0.13,-0.003 0.197,-0.009c1.491,-0.114 1.836,-0.719 1.976,-1.484c0.153,-0.839 0.155,-1.131 0.392,-1.209c0.174,-0.057 0.211,-0.245 0.197,-0.464c-0.014,-0.218 -0.022,-0.242 -0.318,-0.333c-0.23,-0.071 -1.493,-0.174 -2.444,-0.122l0,0.226c0.746,-0.035 1.466,0.046 1.68,0.168c0.49,0.28 0.399,1.632 0.019,2.301c-0.268,0.473 -1.022,0.711 -1.699,0.713l-0,0.213l0,0Zm-2.869,-3.176c-0.33,0.008 -1.691,-0.343 -2.654,-0.417c-0.061,-0.005 -0.124,-0.009 -0.189,-0.012l0,0.226c0.776,0.034 1.578,0.193 1.867,0.566c0.477,0.615 -0.284,2.122 -1.009,2.458c-0.228,0.106 -0.534,0.159 -0.858,0.158l0,0.213c1.321,0.017 1.774,-0.837 1.925,-1.12c0.281,-0.528 0.192,-1.254 0.931,-1.256c0.739,-0.003 0.667,0.712 0.951,1.238c0.152,0.282 0.596,1.14 1.905,1.122l0,-0.213c-0.319,0.002 -0.621,-0.05 -0.847,-0.153c-0.727,-0.332 -1.497,-1.834 -1.023,-2.453c0.287,-0.376 1.092,-0.539 1.87,-0.576l0,-0.226c-0.067,0.004 -0.132,0.008 -0.196,0.014c-0.861,0.071 -1.897,0.412 -2.673,0.431Zm-2.843,-0.429c-0.952,-0.047 -2.22,0.062 -2.451,0.135c-0.294,0.093 -0.303,0.117 -0.316,0.335c-0.012,0.219 0.025,0.406 0.2,0.462c0.237,0.077 0.24,0.369 0.399,1.208c0.144,0.764 0.493,1.367 1.984,1.473c0.063,0.004 0.125,0.007 0.184,0.008l0,-0.213c-0.674,-0.002 -1.422,-0.235 -1.691,-0.704c-0.383,-0.668 -0.482,-2.019 0.006,-2.301c0.214,-0.124 0.937,-0.209 1.685,-0.177l0,-0.226Z" style="fill:#4e6078;"/></g><rect x="202.036" y="126.502" width="1.678" height="10.196" style="fill:#ebebeb;"/></g><g id="Layer4"></g><g opacity="0.6"><path d="M94.641,119.292l-0.57,-7.47c-0.492,-1.979 -3.124,-1.743 -2.739,0.711l0.695,7.117l2.614,-0.358Z" style="fill:#e5a775;"/><path d="M106.506,119.292l0.57,-7.47c0.492,-1.979 3.152,-1.935 2.767,0.519l-0.723,7.31l-2.614,-0.359Z" style="fill:#e5a775;"/><path d="M95.557,101.428l-1.591,10.546c-0.195,1.286 -2.826,0.581 -2.8,-0.608l0.208,-9.621c0.067,-3.097 4.622,-3.224 4.183,-0.317Z" style="fill:#4e6078;"/><path d="M105.591,101.428l1.591,10.546c0.194,1.286 2.825,0.581 2.8,-0.608l-0.208,-9.621c-0.067,-3.097 -4.622,-3.224 -4.183,-0.317Z" style="fill:#4e6078;"/><path d="M107.145,99.327l-2.507,18.27l-8.407,-0l-2.18,-18.27l13.094,0Z" style="fill:#e5a775;"/><path d="M96.503,142.548c-0.931,1.313 -2.171,2.069 -2.481,3.016c-0.175,0.535 -0.045,1.212 0.513,1.28c2.404,0.29 3.102,-0.861 3.958,-1.094c1.48,-0.405 1.518,-1.233 0.919,-3.202c-0.598,-1.968 -2.16,-1.228 -2.909,0Z" style="fill:#e5a775;"/><path d="M95.099,117.597l10.999,-0l-1.404,24.951l-2.909,0l-0.592,-18.977c-0.047,-1.505 -1.141,-1.514 -1.188,-0l-0.592,18.977l-2.909,0l-1.405,-24.951Z" style="fill:#e5a775;"/><path d="M106.728,119.067l-0.001,0c-0.105,-0.07 -0.238,0.071 -0.248,0.193l-0.138,1.808c-0.01,0.122 0.111,0.183 0.217,0.253l0,-0c0.106,0.069 0.239,-0.07 0.248,-0.193l0.139,-1.808c0.01,-0.122 -0.089,-0.236 -0.217,-0.253Z" style="fill:#e5a775;"/><path d="M106.475,119.84l0.06,-0.777l2.638,0.369l-0.061,0.778c-0.255,2.342 -2.937,2.474 -2.637,-0.37Z" style="fill:#e5a775;"/><path d="M94.42,119.067c0.106,-0.07 0.239,0.071 0.248,0.193l0.139,1.808c0.01,0.122 -0.111,0.183 -0.217,0.253c-0.107,0.069 -0.239,-0.07 -0.249,-0.193l-0.138,-1.808c-0.01,-0.122 0.089,-0.236 0.217,-0.253Z" style="fill:#e5a775;"/><path d="M94.673,119.84l-0.06,-0.777l-2.638,0.369l0.061,0.778c0.255,2.342 2.937,2.474 2.637,-0.37Z" style="fill:#e5a775;"/><path d="M109.737,101.338l0.077,2.295l-2.973,0.996l-0.743,12.968l-10.999,-0l-0.732,-12.776l-3.036,-1.058l0.043,-2.019c5.378,1.595 11.05,2.823 18.363,-0.406Z" style="fill:#4e6078;"/><path d="M94.907,114.246l0.681,15.303l10.156,-0l0.546,-15.303l-11.383,-0Z" style="fill:#8599b4;"/><path d="M104.701,142.548c0.931,1.313 2.171,2.069 2.481,3.016c0.175,0.535 0.045,1.212 -0.514,1.28c-2.404,0.29 -3.102,-0.861 -3.958,-1.094c-1.48,-0.405 -1.517,-1.233 -0.919,-3.202c0.598,-1.968 2.161,-1.228 2.91,0Z" style="fill:#e5a775;"/><path d="M94.803,144.427c-0.362,0.382 -0.652,0.742 -0.781,1.137c-0.453,1.384 0.813,1.421 1.847,1.291c1.378,-0.174 1.953,-0.922 2.625,-1.105c1.329,-0.364 1.495,-1.07 1.081,-2.636c-0.057,1.366 -1.37,1.738 -2.827,2.411c-1.457,0.673 -2.631,0.007 -1.945,-1.098Z" style="fill:#e2687f;"/><path d="M106.402,144.427c0.362,0.382 0.652,0.742 0.78,1.137c0.519,1.584 -1.328,1.465 -2.372,1.189c-1.013,-0.267 -1.52,-0.845 -2.099,-1.003c-1.33,-0.364 -1.495,-1.07 -1.081,-2.636c0.057,1.366 1.369,1.738 2.826,2.411c1.457,0.673 2.632,0.007 1.946,-1.098Z" style="fill:#e2687f;"/><path d="M94.302,114.842l-0.43,-4.282c-0.492,-1.98 -3.051,-1.216 -2.666,1.238l0.263,3.249l2.833,-0.205Z" style="fill:#4e6078;"/><path d="M106.834,114.842l0.38,-4.136c0.492,-1.98 3.068,-0.819 2.683,1.635l-0.23,2.706l-2.833,-0.205Z" style="fill:#4e6078;"/><path d="M94.051,99.327l0.503,8.751l0.353,6.168l11.383,-0l0.34,-5.931l0.515,-8.988l-3.383,0l-3.19,10.14l-3.135,-10.14l-3.386,0Z" style="fill:#e2687f;"/><path d="M99.02,80.074c0.205,0 0.401,0.041 0.58,0.114c0.253,-0.547 0.793,-0.925 1.419,-0.925c0.805,-0 1.468,0.624 1.561,1.428c0.262,-0.202 0.587,-0.322 0.94,-0.322c0.853,0 1.548,0.703 1.57,1.579c0.215,-0.113 0.458,-0.177 0.715,-0.177c0.868,0 1.571,0.727 1.571,1.623c0,0.247 -0.054,0.482 -0.15,0.692c0.096,-0.019 0.193,-0.029 0.293,-0.029c0.868,0 1.572,0.727 1.572,1.623c-0,0.354 -0.11,0.682 -0.297,0.949c0.229,0.281 0.368,0.645 0.368,1.043c-0,0.483 -0.205,0.917 -0.53,1.215c0.283,0.293 0.458,0.698 0.458,1.145c0,0.677 -0.401,1.257 -0.972,1.5c0.249,0.288 0.401,0.666 0.401,1.082c-0,0.737 -0.477,1.36 -1.129,1.557c0.037,0.138 0.057,0.284 0.057,0.435c0,0.896 -0.728,1.884 -1.571,1.622c0.063,0.696 -1.056,1.958 -2.155,1.228c-0.588,1.869 -4.632,1.554 -5.416,0.004c-0.835,0.894 -2.276,0.174 -2.323,-0.863c-0.92,0.021 -1.606,-0.755 -1.606,-1.622c0,-0.135 0.016,-0.264 0.045,-0.388c-0.753,-0.12 -1.331,-0.792 -1.331,-1.604c0,-0.175 0.027,-0.344 0.077,-0.503c-0.662,-0.19 -1.148,-0.818 -1.148,-1.563c0,-0.2 0.035,-0.392 0.099,-0.569c-0.365,-0.297 -0.599,-0.758 -0.599,-1.275c-0,-0.485 0.205,-0.92 0.532,-1.217c-0.242,-0.286 -0.39,-0.66 -0.39,-1.07c0,-0.637 0.357,-1.189 0.875,-1.454c-0.057,-0.168 -0.088,-0.348 -0.088,-0.536c0,-0.896 0.704,-1.623 1.572,-1.623c0.05,0 0.099,0.003 0.149,0.008c0.177,-0.558 0.64,-0.983 1.21,-1.09c-0.002,-0.032 -0.003,-0.066 -0.003,-0.1c-0,-0.896 0.703,-1.622 1.571,-1.622c0.325,-0 0.626,0.101 0.876,0.275c0.289,-0.348 0.718,-0.57 1.197,-0.57Z" style="fill:#4d1b02;"/><path d="M103.138,93.083l-0,7.374c-1.397,1.789 -3.682,1.727 -5.079,0l-0,-7.374c0,-3.273 5.079,-3.273 5.079,-0Z" style="fill:#e5a775;"/><path d="M103.138,93.083l-0,4.057c-0.961,0.732 -1.887,1.142 -2.539,1.142c-0.653,0 -1.579,-0.41 -2.54,-1.142l0,-4.057c0,-3.273 5.079,-3.273 5.079,-0Z" style="fill:#b78053;"/><path d="M100.599,97.275c-1.654,0 -5.147,-2.532 -6.227,-6.159c-1.09,-3.662 0.963,-8.915 6.227,-8.915c5.263,0 7.316,5.253 6.226,8.915c-1.08,3.627 -4.573,6.159 -6.226,6.159Z" style="fill:#e5a775;"/><path d="M98.042,93.561c1.116,-0.795 2.279,-0.324 2.669,-0.324c0.389,-0 1.488,-0.471 2.603,0.324c-0.555,2.184 -4.432,2.239 -5.272,-0Z" style="fill:#ff698e;"/><path d="M98.1,93.549c1.035,-0.355 1.95,0.341 2.602,0.341c0.651,0 1.568,-0.935 2.603,-0.305c-1.213,1.204 -3.984,1.139 -5.205,-0.036Z" style="fill:#a21f40;"/><path d="M98.1,93.549c1.115,-0.447 1.936,-0.123 2.587,-0.123c0.651,0 1.57,-0.324 2.685,0.123c-1.214,0.675 -4.051,0.652 -5.272,-0Z" style="fill:#fff;"/><path d="M98.053,93.553c1.11,-0.784 2.063,-0.24 2.713,-0.24c0.65,0 1.433,-0.547 2.548,0.248c-0.004,0.011 -0.008,0.022 -0.013,0.033c-1.421,-0.025 -3.748,-0.039 -5.248,-0.041Z" style="fill:#ff698e;"/><path d="M93.131,91.718c-0.395,-0.895 -0.284,-1.802 0.248,-2.025c0.532,-0.222 1.284,0.324 1.678,1.219c0.395,0.896 0.284,1.803 -0.248,2.025c-0.531,0.223 -1.283,-0.323 -1.678,-1.219Z" style="fill:#e5a775;"/><path d="M106.379,90.91c0.394,-0.895 1.146,-1.442 1.678,-1.219c0.531,0.222 0.642,1.129 0.247,2.025c-0.394,0.895 -1.146,1.441 -1.678,1.219c-0.531,-0.222 -0.642,-1.13 -0.247,-2.025Z" style="fill:#e5a775;"/><path d="M106.471,91.077c4.866,-6.178 -4.501,-9.747 -6.963,-9.747c-2.119,-0 -8.664,5.767 -4.743,10.168c-0.036,-0.767 0.031,-1.985 1.208,-2.41c0.887,0.005 1.995,-0.055 2.014,-0.898c0.187,0.083 0.393,0.129 0.609,0.129c0.737,0 1.353,-0.534 1.506,-1.247c0.026,0.001 0.053,0.002 0.079,0.002c0.558,-0 1.046,-0.305 1.317,-0.763c0.25,-0.02 0.484,-0.102 0.686,-0.232c0.226,0.417 0.628,0.719 1.103,0.797c0.151,0.715 0.903,1.906 2.269,1.294c0.676,0.985 0.975,1.924 0.915,2.907Z" style="fill:#4d1b02;"/><g><ellipse cx="97.375" cy="99.845" rx="0.485" ry="0.472" style="fill:#fff;"/><ellipse cx="98.184" cy="100.479" rx="0.485" ry="0.472" style="fill:#fff;"/><ellipse cx="99.074" cy="100.901" rx="0.485" ry="0.472" style="fill:#fff;"/><ellipse cx="100.06" cy="101.126" rx="0.484" ry="0.472" style="fill:#fff;"/><ellipse cx="101.094" cy="101.134" rx="0.485" ry="0.472" style="fill:#fff;"/><ellipse cx="102.109" cy="100.906" rx="0.485" ry="0.472" style="fill:#fff;"/><ellipse cx="103.048" cy="100.457" rx="0.485" ry="0.472" style="fill:#fff;"/><ellipse cx="103.827" cy="99.841" rx="0.485" ry="0.472" style="fill:#fff;"/><ellipse cx="94.529" cy="92.628" rx="0.485" ry="0.472" style="fill:#fff;"/><ellipse cx="106.792" cy="92.628" rx="0.485" ry="0.472" style="fill:#fff;"/></g><path d="M100.592,129.549l0.78,-0l0.406,12.999l0.006,0c-0.598,1.968 -0.561,2.797 0.919,3.202c0.553,0.15 1.039,0.682 1.961,0.964l0.046,0.013l0.034,0.01l0.016,0.004l0.042,0.012l0.001,-0l0.048,0.013l0.004,0c0.522,0.132 1.224,0.221 1.735,0.086l0.072,-0.008c0.231,-0.028 0.388,-0.16 0.481,-0.343c0.141,-0.21 0.172,-0.512 0.033,-0.937c-0.129,-0.394 -0.418,-0.754 -0.781,-1.136l0.002,0.002c-0.508,-0.537 -1.158,-1.114 -1.702,-1.881l-0.006,-0.01l0.731,-12.99l0.318,0l0.546,-15.301l0.34,-5.932l0.499,3.31l-0.001,0.02c-0.02,0.057 -0.037,0.116 -0.052,0.177l-0.174,2.273l-0.068,0.747l0.011,0.001l-0.328,4.308c-0.021,0.033 -0.035,0.072 -0.038,0.108l-0.139,1.809c-0.009,0.122 0.112,0.183 0.218,0.252c0.036,0.024 0.076,0.023 0.112,0.007c0.601,1.181 2.245,0.691 2.442,-1.118l0.061,-0.777l-0.031,-0.004l0.434,-4.388l0.091,0.007l0.23,-2.707c0.037,-0.237 0.047,-0.462 0.033,-0.674c0.036,-0.096 0.054,-0.196 0.052,-0.301l-0.208,-9.621c-0.003,-0.142 -0.016,-0.277 -0.037,-0.406l0,-0.001l0,0c-0.232,-1.434 -1.51,-2.102 -2.592,-1.994l0.001,-0.017l-4.008,0l0,-1.09c0.276,-0.197 0.482,-0.456 0.584,-0.781c1.099,0.73 2.218,-0.531 2.155,-1.227c0.843,0.261 1.571,-0.727 1.571,-1.623c0,-0.15 -0.02,-0.296 -0.057,-0.434c0.652,-0.198 1.129,-0.82 1.129,-1.557c-0,-0.315 -0.087,-0.607 -0.236,-0.856l0.019,-0.042c0.054,-0.123 0.099,-0.245 0.134,-0.367c0.396,-0.294 0.654,-0.775 0.654,-1.318c0,-0.447 -0.175,-0.852 -0.458,-1.145c0.325,-0.297 0.53,-0.732 0.53,-1.215c-0,-0.397 -0.139,-0.761 -0.368,-1.043c0.187,-0.267 0.297,-0.595 0.297,-0.949c-0,-0.896 -0.704,-1.623 -1.572,-1.623c-0.1,0 -0.198,0.01 -0.292,0.029c0.096,-0.21 0.149,-0.445 0.149,-0.692c0,-0.896 -0.703,-1.623 -1.571,-1.623c-0.257,0 -0.5,0.064 -0.715,0.177c-0.022,-0.876 -0.717,-1.578 -1.57,-1.578c-0.352,-0 -0.678,0.119 -0.94,0.322c-0.095,-0.805 -0.758,-1.429 -1.562,-1.429c-0.146,-0 -0.287,0.02 -0.421,0.059l-0,50.227Z" style="fill-opacity:0.2;"/></g><path d="M54.248,204.923l0,-109.598l73.836,54.799l-73.836,54.799Z" style="fill:#d1d0bf;fill-rule:nonzero;"/><path d="M258.176,204.923l-0,-109.598l-73.836,54.799l73.836,54.799Z" style="fill:#d1d0bf;fill-rule:nonzero;"/><path d="M254.565,202.242l-70.225,-52.118l-56.256,0l-70.225,52.118c-1.48,1.099 -3.611,0.072 -3.611,-1.74l0,4.421l203.928,0l-0,-4.421c-0,1.812 -2.131,2.839 -3.611,1.74Z" style="fill:#e5e5da;fill-rule:nonzero;"/></g><g id="XMLID_1043_"><path id="XMLID_1044_" d="M171.573,95.945l-0,15.858c-0,8.673 -6.891,15.728 -15.361,15.728c-8.47,0 -15.361,-7.055 -15.361,-15.728l0,-30.416c0,-8.673 6.891,-15.728 15.361,-15.728c7.246,-0 13.332,5.166 14.941,12.088l12.89,0c-1.752,-14.127 -13.565,-25.086 -27.831,-25.086c-15.47,-0 -28.055,12.886 -28.055,28.726l-0,30.416c-0,15.84 12.585,28.727 28.055,28.727c15.47,-0 28.055,-12.887 28.055,-28.727l0,-15.858l-12.694,0Z" style="fill:#6da8d6;fill-rule:nonzero;"/><g id="XMLID_1045_"><path id="XMLID_1048_" d="M171.153,77.747l12.89,0c-1.752,-14.127 -13.565,-25.086 -27.831,-25.086l0,12.998c7.246,-0 13.332,5.166 14.941,12.088Z" style="fill:#2974a8;fill-rule:nonzero;"/><path id="XMLID_1051_" d="M171.573,95.945l-0,15.858c-0,8.673 -6.891,15.728 -15.361,15.728l0,12.999c15.47,-0 28.055,-12.887 28.055,-28.727l0,-15.858l-12.694,0Z" style="fill:#13425a;fill-rule:nonzero;"/></g><rect id="XMLID_42_" x="121.936" y="91.489" width="68.552" height="52.941" style="fill:#f9e375;"/><rect id="XMLID_1055_" x="156.212" y="91.489" width="34.276" height="52.941" style="fill:#f5d361;"/><path id="XMLID_1056_" d="M144.617,116.099l-3.819,0.518l2.446,-3.295l-3.727,-2.162l-1.59,3.738l-1.614,-3.706l-3.752,2.204l2.402,3.193l-3.675,-0.487l-0,4.372l3.694,-0.486l-2.399,3.154l3.571,2.31l1.721,-3.822l1.574,3.76l3.848,-2.251l-2.449,-3.135l3.769,0.46l-0,-4.365Z" style="fill:#6da8d6;fill-rule:nonzero;"/><path id="XMLID_1057_" d="M162.876,116.099l-3.818,0.518l2.445,-3.295l-3.726,-2.162l-1.591,3.738l-1.614,-3.706l-3.751,2.204l2.402,3.193l-3.675,-0.487l-0,4.372l3.694,-0.486l-2.399,3.154l3.571,2.31l1.72,-3.822l1.574,3.76l3.848,-2.251l-2.449,-3.135l3.769,0.46l0,-4.365Z" style="fill:#6da8d6;fill-rule:nonzero;"/><path id="XMLID_1060_" d="M181.136,116.099l-3.818,0.518l2.445,-3.295l-3.726,-2.162l-1.591,3.738l-1.614,-3.706l-3.752,2.204l2.403,3.193l-3.676,-0.487l0,4.372l3.694,-0.486l-2.399,3.154l3.571,2.31l1.721,-3.822l1.574,3.76l3.848,-2.251l-2.449,-3.135l3.769,0.46l0,-4.365Z" style="fill:#2974a8;fill-rule:nonzero;"/><path id="XMLID_1063_" d="M162.876,116.099l-3.818,0.518l2.446,-3.295l-3.727,-2.162l-1.565,3.678l0,6.977l1.496,3.575l3.848,-2.251l-2.449,-3.135l3.769,0.46l0,-4.365Z" style="fill:#2974a8;fill-rule:nonzero;"/></g></svg>