<?xml version="1.0" encoding="UTF-8" standalone="no"?><!DOCTYPE svg PUBLIC "-//W3C//DTD SVG 1.1//EN" "http://www.w3.org/Graphics/SVG/1.1/DTD/svg11.dtd"><svg width="100%" height="100%" viewBox="0 0 2048 2048" version="1.1" xmlns="http://www.w3.org/2000/svg" xmlns:xlink="http://www.w3.org/1999/xlink" xml:space="preserve" xmlns:serif="http://www.serif.com/" style="fill-rule:evenodd;clip-rule:evenodd;stroke-linejoin:round;stroke-miterlimit:2;"><path d="M345.221,225.917c-0,433.054 292.625,784.8 657.629,798.075c-365,13.279 -657.629,365.037 -657.629,798.091l678.779,0l0,-1596.17l-678.779,-0Z" style="fill:#ebf0f3;fill-rule:nonzero;"/><path d="M1045.15,1023.99c365,-13.275 657.621,-365.021 657.621,-798.075l-678.775,-0l0,1596.17l678.775,0c0,-433.054 -292.621,-784.812 -657.621,-798.091Z" style="fill:#d5d6db;fill-rule:nonzero;"/><path d="M904.654,535.375c-42.183,-5.662 -83.537,-19.246 -125.933,-21.854c-76.738,-4.746 -151.283,26.471 -226.479,45.133c-33.734,8.375 -67.959,13.708 -102.317,17.046c106.508,241.379 318.954,407.733 564.629,411.929c-6.979,12.592 -13.187,29.909 -20.071,41.034c-20.033,32.383 -47.7,55.312 -67.183,88.404c-28.846,48.975 -37.033,113.829 -63.979,164.6c-17.358,32.7 -41.821,58.225 -59.367,90.771c-17.137,31.783 -27.133,69.245 -44.1,101.191c-17.221,32.409 -40.958,57.925 -61.4,87.046c-55.104,78.5 -85.704,181.629 -139.433,261.413l464.979,-0l0,-1286.35c-39.854,3.142 -79.737,4.963 -119.346,-0.362Z" style="fill:#fcd462;fill-rule:nonzero;"/><path d="M1484.65,1735.2c-14.533,-19.3 -35.234,-31.6 -44.846,-55.521c-8.592,-21.35 -6.921,-49.087 -19.225,-67.183c-14.687,-21.571 -41.983,-18.979 -59.604,-36.525c-21.221,-21.129 -22.058,-64.354 -42.292,-87.046c-10.746,-12.042 -26.25,-17.362 -33.775,-32.971c-5.558,-11.562 -5.366,-26.042 -7.462,-39.379c-7.417,-47.183 -42.434,-77.029 -74.221,-102.079c-14.833,-11.692 -29.913,-23.809 -40.917,-41.209c-7.129,-11.275 -12.291,-24.362 -17.391,-37.345c-16.83,-42.792 -33.659,-85.605 -50.488,-128.405c-13.696,-34.82 -26.437,-89.791 -46.442,-120.583c255.471,-11.087 473.234,-197.208 569.684,-459.487c-180.709,-6.017 -361.7,-11.163 -541.996,3.962c-17.2,1.446 -34.438,2.958 -51.675,4.313l-0,1286.34l484.167,0c2.516,-31.066 -6.742,-64.6 -23.517,-86.883Z" style="fill:#f6c358;fill-rule:nonzero;"/><path d="M1823.34,112.954c-0,-62.379 -42.95,-112.954 -95.921,-112.954l-703.421,0l0,225.917l703.421,-0c52.971,-0 95.921,-50.584 95.921,-112.963Z" style="fill:#3a556a;fill-rule:nonzero;"/><g><path d="M320.579,0c-52.975,0 -95.921,50.575 -95.921,112.954c0,62.384 42.946,112.963 95.921,112.963l703.421,-0l0,-225.917l-703.421,-0Z" style="fill:#64798a;fill-rule:nonzero;"/><path d="M320.579,1822.08c-52.975,0 -95.921,50.571 -95.921,112.963c0,62.379 42.946,112.954 95.921,112.954l703.421,0l0,-225.917l-703.421,0Z" style="fill:#64798a;fill-rule:nonzero;"/></g><path d="M1727.42,1822.08l-703.421,0l0,225.917l703.421,0c52.971,0 95.921,-50.575 95.921,-112.954c-0,-62.392 -42.95,-112.963 -95.921,-112.963Z" style="fill:#3a556a;fill-rule:nonzero;"/></svg>