<?xml version="1.0" encoding="UTF-8" standalone="no"?><!DOCTYPE svg PUBLIC "-//W3C//DTD SVG 1.1//EN" "http://www.w3.org/Graphics/SVG/1.1/DTD/svg11.dtd"><svg width="100%" height="100%" viewBox="0 0 2134 2134" version="1.1" xmlns="http://www.w3.org/2000/svg" xmlns:xlink="http://www.w3.org/1999/xlink" xml:space="preserve" xmlns:serif="http://www.serif.com/" style="fill-rule:evenodd;clip-rule:evenodd;stroke-linejoin:round;stroke-miterlimit:2;"><path d="M993.104,790.721l1029.88,-0c60.941,-0 110.345,49.404 110.345,110.346l0,662.071c0,60.941 -49.404,110.345 -110.345,110.345l-588.505,0l0,121.317c0,23.1 -27.925,34.667 -44.258,18.329l-139.65,-139.646l-257.471,0c-60.942,0 -110.346,-49.404 -110.346,-110.345l0,-662.071c0,-60.942 49.404,-110.346 110.346,-110.346Z" style="fill:#c3e678;fill-rule:nonzero;"/><path d="M882.758,901.067l0,662.071c0,7.916 0.909,15.608 2.496,23.058c257.104,-103.208 438.884,-354.346 438.884,-648.346c-0,-50.508 -5.638,-99.658 -15.813,-147.125l-315.225,0c-60.937,-0.004 -110.342,49.4 -110.342,110.342Z" style="fill:#a5d76e;fill-rule:nonzero;"/><path d="M1250.58,937.846c0,-345.338 -279.95,-625.288 -625.288,-625.288c-345.337,0 -625.287,279.95 -625.287,625.288c0,302.492 214.813,554.775 500.208,612.725l188.33,188.329c17.379,17.379 47.095,5.071 47.095,-19.508l0,-166.575c292.617,-52.188 514.942,-307.35 514.942,-614.971Z" style="fill:#b6daff;fill-rule:nonzero;"/><g><path d="M625.308,1269.09c-0.012,-0 -0.033,0.004 -0.045,-0c-20.313,-0 -36.805,-16.488 -36.805,-36.805l0,-0.049c0,-20.313 16.488,-36.805 36.805,-36.805c0.008,0 0.029,-0.004 0.045,0c20.313,0 36.805,16.488 36.805,36.805l-0,0.041c0.004,20.325 -16.488,36.813 -36.805,36.813Z" style="fill:#fff;fill-rule:nonzero;"/><path d="M1508.05,1452.79c-9.413,-0 -18.829,-3.592 -26.009,-10.771l-183.908,-183.908c-14.366,-14.363 -14.366,-37.65 0,-52.013c14.363,-14.362 37.65,-14.362 52.013,0l157.904,157.896l341.808,-341.809c14.363,-14.362 37.65,-14.362 52.013,0c14.366,14.363 14.366,37.65 -0,52.013l-367.817,367.817c-7.175,7.183 -16.592,10.775 -26.004,10.775Z" style="fill:#fff;fill-rule:nonzero;"/><path d="M625.288,1121.92c-20.313,-0 -36.784,-16.471 -36.784,-36.783l0,-10.988c0,-48.929 31.796,-91.337 79.121,-105.529c61.692,-18.5 104.783,-76.454 104.788,-140.942c0.004,-38.262 -15.588,-74.929 -43.9,-103.241c-28.309,-28.309 -64.967,-43.9 -103.23,-43.9l-0.012,-0c-81.121,0.004 -147.117,66.004 -147.117,147.125c0,20.312 -16.471,36.783 -36.783,36.783c-20.313,-0 -36.784,-16.471 -36.784,-36.783c0,-121.68 98.992,-220.68 220.675,-220.692l0.017,-0c57.908,-0 113.033,23.242 155.242,65.442c42.208,42.208 65.45,97.345 65.441,155.258c-0.008,96.712 -64.658,183.642 -157.216,211.396c-15.963,4.787 -26.692,18.879 -26.692,35.066l0,10.988c0.017,20.337 -16.454,36.8 -36.767,36.8Z" style="fill:#fff;fill-rule:nonzero;"/></g></svg>