<?xml version="1.0" encoding="UTF-8" standalone="no"?>
<!DOCTYPE svg PUBLIC "-//W3C//DTD SVG 1.1//EN" "http://www.w3.org/Graphics/SVG/1.1/DTD/svg11.dtd">
<svg width="100%" height="100%" viewBox="0 0 329 322" version="1.1" xmlns="http://www.w3.org/2000/svg" xmlns:xlink="http://www.w3.org/1999/xlink" xml:space="preserve" xmlns:serif="http://www.serif.com/" style="fill-rule:evenodd;clip-rule:evenodd;stroke-linejoin:round;stroke-miterlimit:2;">
    <g id="Artboard1" transform="matrix(0.863565,0,0,0.968056,26.1766,15.3846)">
        <rect x="-30.312" y="-15.892" width="380.818" height="331.76" style="fill:none;"/>
        <g transform="matrix(1.15799,0,0,1.033,-7.63779,0.635669)">
            <path d="M273.529,118.529L273.529,63.824C273.529,53.758 265.36,45.589 255.294,45.589L18.235,45.589C8.169,45.588 0,53.758 0,63.824L0,218.824C0,228.89 8.169,237.059 18.235,237.059L255.294,237.059C265.36,237.059 273.529,228.89 273.529,218.824L273.529,164.118C283.595,164.118 291.764,155.949 291.764,145.883L291.764,136.765C291.766,126.699 283.604,118.529 273.529,118.529Z" style="fill:rgb(166,99,51);fill-rule:nonzero;"/>
            <path d="M45.588,0L227.941,0C238.007,0 246.176,8.169 246.176,18.244L246.176,145.882C246.176,155.957 238.007,164.117 227.941,164.117L45.588,164.117C35.522,164.117 27.353,155.948 27.353,145.882L27.353,18.244C27.353,8.169 35.522,0 45.588,0Z" style="fill:rgb(228,231,231);fill-rule:nonzero;"/>
            <g>
                <g transform="matrix(2.32708,0,0,1,-278.296,-3.55271e-15)">
                    <rect x="145.882" y="82.059" width="63.824" height="18.235" style="fill:rgb(183,187,189);"/>
                </g>
                <g transform="matrix(2.32708,0,0,1,-278.296,-3.55271e-15)">
                    <rect x="145.882" y="45.588" width="63.824" height="18.244" style="fill:rgb(183,187,189);"/>
                </g>
                <path d="M227.941,0L45.588,0C35.522,0 27.353,8.169 27.353,18.244L27.353,27.353L246.177,27.353L246.177,18.244C246.176,8.169 238.016,0 227.941,0Z" style="fill:rgb(183,187,189);fill-rule:nonzero;"/>
            </g>
            <path d="M18.235,72.95L218.823,100.294C228.889,100.294 237.058,108.463 237.058,118.529L237.058,273.529C237.058,283.595 228.889,291.764 218.823,291.764L18.235,264.412C8.169,264.412 0,256.242 0,246.176L0,54.706C0,64.845 8.169,72.95 18.235,72.95Z" style="fill:rgb(244,180,89);fill-rule:nonzero;"/>
            <path d="M196.029,164.118C203.578,164.118 209.705,170.245 209.705,177.794C209.705,185.343 203.578,191.47 196.029,191.47C188.48,191.47 182.353,185.352 182.353,177.794C182.353,170.236 188.48,164.118 196.029,164.118Z" style="fill:rgb(228,231,231);fill-rule:nonzero;"/>
            <path d="M18.235,264.412L218.823,291.765C228.889,291.765 237.058,283.596 237.058,273.53L237.058,237.059L18.235,209.706C8.169,209.706 0,201.6 0,191.471L0,246.177C0,256.251 8.169,264.412 18.235,264.412Z" style="fill:rgb(208,124,64);fill-rule:nonzero;"/>
            <path d="M246.176,155C246.176,155 291.764,145.49 291.764,136.765L291.764,164.118C291.764,164.118 283.595,182.353 273.529,182.353L246.176,191.471C236.101,191.471 227.941,183.302 227.941,173.236C227.941,163.169 236.111,155 246.176,155Z" style="fill:rgb(208,124,64);fill-rule:nonzero;"/>
        </g>
    </g>
</svg>
